<svg width="2212" height="480" viewBox="0 0 2212 480" fill="none" xmlns="http://www.w3.org/2000/svg">
<path d="M564 5H660V475H564V5Z" fill="white"/>
<path fill-rule="evenodd" clip-rule="evenodd" d="M936 5H864L840 5L768 5V169.5V475H864V334H936C1028.78 334 1104 260.351 1104 169.5C1104 78.6492 1028.78 5 936 5ZM936 240C975.764 240 1008 208.436 1008 169.5C1008 130.564 975.764 99 936 99L864 99V240H936Z" fill="white"/>
<path d="M1601.62 5H1697.62V475H1601.62V5Z" fill="white"/>
<path fill-rule="evenodd" clip-rule="evenodd" d="M2021.47 480C2102.4 480 2168.18 447.436 2211.62 386.001L2135.64 327.667C2134.62 328.996 2133.58 330.306 2132.52 331.597C2106.12 363.601 2066.17 384 2021.47 384C1941.99 384 1877.56 319.529 1877.56 240C1877.56 160.471 1941.99 96 2021.47 96C2067.98 96 2109.34 118.078 2135.64 152.333L2211.62 93.9988C2168.18 32.5635 2102.4 0 2021.47 0C1889 0 1781.62 107.452 1781.62 240C1781.62 372.548 1889 480 2021.47 480Z" fill="white"/>
<path fill-rule="evenodd" clip-rule="evenodd" d="M1346.13 480C1446.38 480 1517.62 427.253 1517.62 338.242C1517.62 240.659 1439.13 216.264 1369.21 195.165C1297.32 173.407 1286.11 158.901 1286.11 137.802C1286.11 119.341 1302.6 102.857 1335.58 102.857C1376.34 102.857 1398.03 121.915 1413.73 152.908L1496.44 89.4447C1461.8 31.0328 1405.74 0 1335.58 0C1255.77 0 1180.57 51.4286 1180.57 140.44C1180.57 228.791 1247.85 261.758 1316.45 280.879C1385.7 300 1412.09 311.209 1412.09 339.56C1412.09 357.363 1399.55 377.143 1349.43 377.143C1305.59 377.143 1278.56 358.944 1261.27 330.398L1176 395.825C1207.21 447.032 1264.18 480 1346.13 480Z" fill="white"/>
<path fill-rule="evenodd" clip-rule="evenodd" d="M320.312 344.766C351.74 320.637 372 282.684 372 240H240.132L240 240.102L320.312 344.766Z" fill="#00BFFF"/>
<path fill-rule="evenodd" clip-rule="evenodd" d="M480 240C480 372.548 372.548 480 240 480C107.452 480 0 372.548 0 240C0 107.452 107.452 0 240 0C320.981 0 386.805 32.5635 430.27 93.9988L354.248 152.333C327.924 118.078 286.54 96 240 96C160.471 96 96 160.471 96 240C96 319.529 160.471 384 240 384C319.529 384 384 319.529 384 240H480Z" fill="white"/>
</svg>
